# xmcd CD database file
#
# Track frame offsets:
#	150
#	10887
#	23929
#	35676
#	47189
#	60449
#	74462
#	86076
#	103163
#	115539
#	139849
#	155101
#	167725
#	189377
#	208650
#
# Disc length: 2912 seconds
#
# Revision: 0
# Processed by: cddbd v1.5.1PL0 Copyright (c) Steve Scherf et al.
# Submitted via: CDex 1.51
#
DISCID=d30b5e0f
DTITLE=Michelle Sell - Dancing on Air
DYEAR=2004
DGENRE=Jazz
TTITLE0=Journey of Dreams
TTITLE1=Natural Tendencies
TTITLE2=Dancing on Air
TTITLE3=Flight
TTITLE4=Snow Queen
TTITLE5=Buenos Aires
TTITLE6=Paper, Rock, Scissors
TTITLE7=Midnight Waltz in the Rain
TTITLE8=Ballet in Time
TTITLE9=The Beauty of You
TTITLE10=Magenta Moon
TTITLE11=Painting by Water
TTITLE12=Believe It
TTITLE13=Pieces of Glass
TTITLE14=Hope Valley
EXTD=YEAR: 2004
EXTT0=
EXTT1=
EXTT2=
EXTT3=
EXTT4=
EXTT5=
EXTT6=
EXTT7=
EXTT8=
EXTT9=
EXTT10=
EXTT11=
EXTT12=
EXTT13=
EXTT14=
PLAYORDER=
